<svg width="906" height="714" viewBox="0 0 906 714" fill="none" xmlns="http://www.w3.org/2000/svg">
<path d="M107.816 596C72.3208 596 45.4778 586.021 27.2867 566.062C9.09556 545.661 0 516.61 0 478.911V452.3H69.215V484.233C69.215 514.393 81.86 529.472 107.15 529.472C119.573 529.472 128.891 525.924 135.102 518.828C141.758 511.288 145.085 499.313 145.085 482.903C145.085 463.388 140.648 446.312 131.775 431.676C122.901 416.597 106.485 398.634 82.5256 377.789C52.3549 351.178 31.2798 327.228 19.3003 305.939C7.32081 284.206 1.33106 259.813 1.33106 232.758C1.33106 195.946 10.6485 167.561 29.2833 147.603C47.9181 127.201 74.9829 117 110.478 117C145.529 117 171.928 127.201 189.676 147.603C207.867 167.561 216.962 196.39 216.962 234.089V253.382H147.747V229.432C147.747 213.465 144.642 201.934 138.43 194.837C132.218 187.298 123.123 183.528 111.143 183.528C86.7406 183.528 74.5392 198.386 74.5392 228.101C74.5392 244.955 78.9761 260.7 87.8498 275.336C97.1672 289.972 113.805 307.713 137.764 328.558C168.379 355.169 189.454 379.341 200.99 401.074C212.525 422.806 218.293 448.308 218.293 477.581C218.293 515.723 208.754 544.995 189.676 565.397C171.041 585.799 143.754 596 107.816 596Z" fill="#0D426B"/>
<path d="M363.425 596C328.374 596 301.531 586.021 282.896 566.062C264.705 546.104 255.61 517.941 255.61 481.572V231.428C255.61 195.059 264.705 166.896 282.896 146.938C301.531 126.979 328.374 117 363.425 117C398.477 117 425.098 126.979 443.289 146.938C461.924 166.896 471.241 195.059 471.241 231.428V280.658H402.026V226.771C402.026 197.942 389.825 183.528 365.422 183.528C341.019 183.528 328.818 197.942 328.818 226.771V486.894C328.818 515.28 341.019 529.472 365.422 529.472C389.825 529.472 402.026 515.28 402.026 486.894V415.71H471.241V481.572C471.241 517.941 461.924 546.104 443.289 566.062C425.098 586.021 398.477 596 363.425 596Z" fill="#0D426B"/>
<path d="M495.741 123.653H569.614L617.533 484.899H618.864L666.782 123.653H734L663.454 589.347H566.287L495.741 123.653Z" fill="#0D426B"/>
<rect x="808" width="98" height="714" fill="#FECF0C"/>
</svg>
